<svg width="14" height="15" viewBox="0 0 14 15" fill="none" xmlns="http://www.w3.org/2000/svg">
<path d="M10.4533 7.25289C10.4256 7.18128 10.3839 7.11587 10.3308 7.06039L7.41417 4.14372C7.35978 4.08933 7.29521 4.04619 7.22415 4.01675C7.15308 3.98732 7.07692 3.97217 7 3.97217C6.84466 3.97217 6.69568 4.03388 6.58583 4.14372C6.53144 4.19811 6.4883 4.26268 6.45887 4.33374C6.42943 4.40481 6.41428 4.48097 6.41428 4.55789C6.41428 4.71323 6.47599 4.86221 6.58583 4.97205L8.51083 6.89122H4.08333C3.92862 6.89122 3.78025 6.95268 3.67085 7.06208C3.56146 7.17147 3.5 7.31985 3.5 7.47455C3.5 7.62926 3.56146 7.77764 3.67085 7.88703C3.78025 7.99643 3.92862 8.05789 4.08333 8.05789H8.51083L6.58583 9.97705C6.53116 10.0313 6.48776 10.0958 6.45815 10.1669C6.42853 10.238 6.41328 10.3142 6.41328 10.3912C6.41328 10.4682 6.42853 10.5445 6.45815 10.6156C6.48776 10.6866 6.53116 10.7512 6.58583 10.8054C6.64006 10.8601 6.70458 10.9035 6.77566 10.9331C6.84675 10.9627 6.92299 10.9779 7 10.9779C7.07701 10.9779 7.15325 10.9627 7.22434 10.9331C7.29542 10.9035 7.35994 10.8601 7.41417 10.8054L10.3308 7.88872C10.3839 7.83324 10.4256 7.76783 10.4533 7.69622C10.5117 7.5542 10.5117 7.39491 10.4533 7.25289Z" fill="#888888"/>
</svg>
