<svg width="17" height="13" viewBox="0 0 17 13" fill="none" xmlns="http://www.w3.org/2000/svg">
<mask id="path-1-outside-1_579_5412" maskUnits="userSpaceOnUse" x="2.67773" y="-0.0976562" width="15" height="11" fill="black">
<rect fill="white" x="2.67773" y="-0.0976562" width="15" height="11"/>
<path fill-rule="evenodd" clip-rule="evenodd" d="M7.06073 0.902344H12.8948C14.7608 0.902344 16.28 2.97972 16.28 5.53033C16.28 8.08095 14.7629 10.1583 12.897 10.1583H7.06073C5.19477 10.1583 3.67773 8.08095 3.67773 5.53033C3.67773 2.97972 5.19477 0.902344 7.06073 0.902344Z"/>
</mask>
<path fill-rule="evenodd" clip-rule="evenodd" d="M7.06073 0.902344H12.8948C14.7608 0.902344 16.28 2.97972 16.28 5.53033C16.28 8.08095 14.7629 10.1583 12.897 10.1583H7.06073C5.19477 10.1583 3.67773 8.08095 3.67773 5.53033C3.67773 2.97972 5.19477 0.902344 7.06073 0.902344Z" fill="white"/>
<path d="M12.8948 0.395725H7.06073V1.40896H12.8948V0.395725ZM16.7866 5.53033C16.7866 4.15848 16.3788 2.89421 15.696 1.96077C15.0138 1.02799 14.0292 0.395725 12.8948 0.395725V1.40896C13.6264 1.40896 14.3344 1.81538 14.8782 2.55894C15.4216 3.30184 15.7734 4.35157 15.7734 5.53033H16.7866ZM12.897 10.6649C14.0314 10.6649 15.0156 10.0326 15.6973 9.09972C16.3794 8.16624 16.7866 6.90202 16.7866 5.53033H15.7734C15.7734 6.70926 15.422 7.75903 14.8792 8.5019C14.3359 9.24537 13.6285 9.6517 12.897 9.6517V10.6649ZM7.06073 10.6649H12.897V9.6517H7.06073V10.6649ZM3.17112 5.53033C3.17112 6.90202 3.57831 8.16624 4.26046 9.09972C4.94216 10.0326 5.92628 10.6649 7.06073 10.6649V9.6517C6.32921 9.6517 5.62184 9.24537 5.07854 8.5019C4.53568 7.75903 4.18435 6.70926 4.18435 5.53033H3.17112ZM7.06073 0.395725C5.92628 0.395725 4.94216 1.02808 4.26046 1.96095C3.57831 2.89442 3.17112 4.15864 3.17112 5.53033H4.18435C4.18435 4.35141 4.53568 3.30163 5.07854 2.55877C5.62184 1.81529 6.32921 1.40896 7.06073 1.40896V0.395725Z" fill="#696969" mask="url(#path-1-outside-1_579_5412)"/>
<path d="M12.8957 10.0874C14.7257 10.0874 16.2093 8.04723 16.2093 5.53053C16.2093 3.01382 14.7257 0.973633 12.8957 0.973633C11.0656 0.973633 9.58203 3.01382 9.58203 5.53053C9.58203 8.04723 11.0656 10.0874 12.8957 10.0874Z" fill="#E6EBFF"/>
<path d="M16.1409 5.65519C16.0932 8.07028 14.6585 10.0166 12.9009 10.0166C11.1433 10.0166 9.65879 8.00362 9.65879 5.53077C9.65879 4.94422 9.74115 4.38433 9.89068 3.87109C8.66188 7.90364 4.11511 8.98121 3.70117 5.9929C3.87238 8.32801 5.31573 10.1588 7.06683 10.1588H12.9031C13.8913 10.1588 14.7799 9.57665 15.3997 8.65016C15.7855 7.90364 16.1452 6.89051 16.1452 5.71296C16.1452 5.69296 16.1452 5.67297 16.143 5.65519H16.1409Z" fill="#F5F8FF"/>
<path d="M4.76562 2.23682L10.1836 2.34791C10.4003 2.34791 10.9421 2.34791 11.2672 2.79226C11.4143 2.99336 13.8678 6.71743 15.1682 8.68001" stroke="#696969" stroke-width="0.548837" stroke-linecap="round"/>
<path d="M16.1445 5.01313L13.2188 1.125" stroke="#696969" stroke-width="0.548837" stroke-linecap="round"/>
<path d="M13.5414 6.23569L10.399 4.56935C9.85721 4.34717 9.64049 4.34717 8.99033 4.34717C8.03677 4.34717 5.1255 4.34717 3.78906 4.34717" stroke="#696969" stroke-width="0.548837" stroke-linecap="round"/>
<path d="M11.2685 9.99548C11.6186 10.3544 11.9686 10.8329 12.0853 11.4016C11.3852 10.9231 10.9184 10.6838 9.98493 10.5642C10.6384 11.0427 10.7628 11.5212 10.8017 11.9997C7.76787 10.2053 2.867 9.66603 1 10.3544C1.23337 8.70901 2.28356 7.24406 3.8005 6.76555C5.90087 6.103 8.23462 6.76555 9.75156 7.72257C10.7515 8.35343 11.8476 9.50181 12.5521 10.2053C12.202 10.2053 11.7199 10.0632 11.2685 9.99548Z" fill="#E4B537" stroke="#696969" stroke-width="0.506618" stroke-linejoin="round"/>
</svg>
